<svg class="svg-icon" style="width: 1em; height: 1em;vertical-align: middle;fill: currentColor;overflow: hidden;" viewBox="0 0 1024 1024" version="1.1" xmlns="http://www.w3.org/2000/svg"><path d="M272 809c-46.3 0-84-37.7-84-84v-37.7c0-40.7 33.1-73.9 73.9-73.9h500.2c40.7 0 73.9 33.1 73.9 73.9V725c0 46.3-37.7 84-84 84H272z" fill="#F4A360" /><path d="M762.1 634.6c29 0 52.7 23.7 52.7 52.7V725c0 34.6-28.3 62.9-62.9 62.9H272c-34.6 0-62.9-28.3-62.9-62.9v-37.7c0-29 23.7-52.7 52.7-52.7h500.3m0-42.3H261.9c-52.4 0-95 42.6-95 95V725c0 58 47.2 105.1 105.1 105.1h480c58 0 105.1-47.2 105.1-105.1v-37.7c0-52.4-42.6-95-95-95z" fill="#262626" /><path d="M805.1 661.2H218.9c-15.3 0-27.6-12.4-27.6-27.6v-18.7c0-15.3 12.4-27.6 27.6-27.6h586.2c15.3 0 27.6 12.4 27.6 27.6v18.7c0 15.2-12.4 27.6-27.6 27.6z" fill="#B2672F" /><path d="M245.1 566.4c-11.7 0-21.1-9.5-21.1-21.1V503c0-11.7 9.5-21.1 21.1-21.1H779c11.7 0 21.1 9.5 21.1 21.1v42.3c0 11.7-9.5 21.1-21.1 21.1H245.1z" fill="#53F262" /><path d="M779 503v42.3H245.1V503H779m0-42.3H245.1c-23.4 0-42.3 18.9-42.3 42.3v42.3c0 23.4 18.9 42.3 42.3 42.3H779c23.4 0 42.3-18.9 42.3-42.3V503c-0.1-23.4-19-42.3-42.3-42.3z" fill="#262626" /><path d="M224 418.4h576.1V503H224z" fill="#F45151" /><path d="M779 439.5v42.3H245.1v-42.3H779m42.2-42.3H202.8V524.1H821.3V397.2h-0.1z" fill="#262626" /><path d="M241.4 435c-25.9 0-45.4-24.1-45.7-56.2-0.3-8.5-0.3-56.5 38.3-97.8 37.6-40.3 97.8-60.8 179.1-60.8h197.7c80.7 0 140.6 19.6 178 58.2 37.2 38.4 39.9 82.7 39.3 100 0 33.2-18.8 56.5-45.7 56.5h-541z" fill="#F4A360" /><path d="M610.8 246.7c200.3 0 190.9 127.2 190.9 131.6 0 4.4-1.2 30.3-19.2 30.3H241.4c-10.6 0-19.2-12.6-19.2-30.3 0 0-9.3-131.6 190.9-131.6h197.7m0-52.8H413.2c-88.9 0-155.6 23.3-198.4 69.2-44.8 48.1-45.9 103.2-45.4 116.6 0.6 46.8 31.4 81.9 72.1 81.9h541.1c41.5 0 71.8-34.6 72.1-82.4 0.6-21.1-2.9-73.6-46.8-118.9-42.6-44.1-108.9-66.4-197.1-66.4z" fill="#262626" /><path d="M215.1 566.4s32.7 74.2 72.3 74.2c39.6 0 38.4-37.1 76.6-37.1s37 37.1 78 37.1 31.3-37.1 73.5-37.1 40.1 37.1 81.1 37.1c30 0 21.2-37.1 63-37.1 46.9 0 24.9 37.1 73.8 37.1s68.5-74.2 68.5-74.2H215.1z" fill="#FCEF7A" /><path d="M733.4 651.1c-30.2 0-39.6-13.5-46.5-23.3-5.8-8.3-9.6-13.7-27.3-13.7-17.2 0-22.2 6.9-29 16.4-6.6 9.2-14.8 20.6-34 20.6-24.5 0-37-11.7-47-21.2-9.4-8.9-16.9-15.9-34-15.9-16.5 0-21.9 6.3-29.4 15.1-8.4 9.8-18.9 22-44.1 22-25.1 0-37.7-12.2-47.9-22-9.2-8.7-15.7-15.1-30.2-15.1-14.6 0-21.1 6.4-30.1 15.3-9.9 9.7-22.2 21.8-46.5 21.8-45.2 0-78.3-72.2-82-80.5-1.4-3.3-1.1-7 0.8-10 2-3 5.3-4.8 8.9-4.8h586.7c3.3 0 6.4 1.5 8.4 4.1 2 2.6 2.7 6 1.8 9.1-0.8 3.4-22.3 82.1-78.6 82.1z m-73.8-58.2c28.7 0 37.9 13.2 44.6 22.8 6 8.6 10 14.3 29.1 14.3 28.4 0 45.9-33.7 53.6-53H232.3c12.2 21.8 34.1 53 55.1 53 15.7 0 22.7-7 31.7-15.8 9.7-9.5 21.7-21.3 44.9-21.3 23 0 35.1 11.7 44.8 21 9.3 9 16.6 16.1 33.2 16.1 15.5 0 20.8-6.1 28.1-14.6 8.6-10 19.3-22.4 45.5-22.4 25.5 0 38.3 12 48.5 21.6 9.2 8.6 16.4 15.4 32.6 15.4 8 0 10.8-3.4 16.8-11.8 7.5-10.7 18-25.3 46.1-25.3z" fill="#262626" /><path d="M801 587.3c17.5 0 31.7 14.2 31.7 31.7v10.5c0 17.5-14.2 31.7-31.7 31.7H223c-17.5 0-31.7-14.2-31.7-31.7V619c0-17.5 14.2-31.7 31.7-31.7h578m0-42.3H223c-40.8 0-74 33.2-74 74v10.5c0 40.8 33.2 74 74 74h578c40.8 0 74-33.2 74-74V619c0-40.8-33.2-74-74-74z" fill="#262626" /><path d="M282.9 344.3a15.9 11 0 1 0 31.8 0 15.9 11 0 1 0-31.8 0Z" fill="#F9BC7A" /><path d="M414 382a15.9 11 0 1 0 31.8 0 15.9 11 0 1 0-31.8 0Z" fill="#F9BC7A" /><path d="M638.9 360.8a15.9 11 0 1 0 31.8 0 15.9 11 0 1 0-31.8 0Z" fill="#F9BC7A" /><path d="M365.1 288.1a15.9 11 0 1 0 31.8 0 15.9 11 0 1 0-31.8 0Z" fill="#F9BC7A" /><path d="M517.8 344.3a15.9 11 0 1 0 31.8 0 15.9 11 0 1 0-31.8 0Z" fill="#F9BC7A" /><path d="M744.3 382.8a15.9 11 0 1 0 31.8 0 15.9 11 0 1 0-31.8 0Z" fill="#F9BC7A" /><path d="M502 286.4a15.9 11 0 1 0 31.8 0 15.9 11 0 1 0-31.8 0Z" fill="#F9BC7A" /><path d="M638.9 291.7a15.9 11 0 1 0 31.8 0 15.9 11 0 1 0-31.8 0Z" fill="#F9BC7A" /></svg>